<svg width="83" height="69" viewBox="0 0 83 69" fill="none" xmlns="http://www.w3.org/2000/svg">
<path d="M13.1758 12C12.0558 12 10.9758 12.24 9.93578 12.72C8.89578 13.2 7.95578 13.86 7.11578 14.7C6.31578 15.5 5.67578 16.42 5.19578 17.46C4.71578 18.5 4.47578 19.58 4.47578 20.7C4.47578 21.74 4.87578 22.6 5.67578 23.28C6.51578 23.96 7.91578 24.3 9.87578 24.3L11.0758 29.1C10.9158 29.18 10.7358 29.24 10.5358 29.28C10.3358 29.32 10.1158 29.36 9.87578 29.4C9.67578 29.4 9.47578 29.4 9.27578 29.4C7.59578 29.4 6.17578 28.74 5.01578 27.42C3.85578 26.06 3.27578 24.02 3.27578 21.3C3.27578 19.86 3.55578 18.52 4.11578 17.28C4.67578 16 5.43578 14.88 6.39578 13.92C7.35578 12.96 8.45578 12.2 9.69578 11.64C10.9758 11.08 12.3358 10.8 13.7758 10.8C15.6558 10.8 17.3758 11.12 18.9358 11.76C20.5358 12.4 21.8958 13.28 23.0158 14.4C24.1758 15.48 25.0758 16.78 25.7158 18.3C26.3558 19.78 26.6758 21.38 26.6758 23.1C26.6758 24.74 26.3358 26.44 25.6558 28.2C24.9758 29.92 24.0558 31.64 22.8958 33.36C21.7758 35.08 20.4958 36.76 19.0558 38.4C17.6158 40.04 16.1358 41.58 14.6158 43.02C13.0958 44.46 11.6158 45.8 10.1758 47.04C8.73578 48.24 7.43578 49.26 6.27578 50.1H25.1758L26.3758 44.4H27.2758V54H0.875781C3.63578 51 6.23578 48.2 8.67578 45.6C11.1158 43 13.2358 40.48 15.0358 38.04C16.8758 35.56 18.3158 33.12 19.3558 30.72C20.4358 28.28 20.9758 25.74 20.9758 23.1C20.9758 21.14 20.7758 19.46 20.3758 18.06C19.9758 16.66 19.4358 15.52 18.7558 14.64C18.0758 13.72 17.2558 13.06 16.2958 12.66C15.3358 12.22 14.2958 12 13.1758 12ZM52.7523 33C52.7523 28.8 52.5123 25.34 52.0323 22.62C51.5523 19.9 50.9523 17.76 50.2323 16.2C49.5123 14.64 48.7123 13.56 47.8323 12.96C46.9523 12.32 46.0923 12 45.2523 12C44.4123 12 43.5523 12.32 42.6723 12.96C41.7923 13.56 40.9923 14.64 40.2723 16.2C39.5523 17.76 38.9523 19.9 38.4723 22.62C37.9923 25.34 37.7523 28.8 37.7523 33C37.7523 37.2 37.9923 40.66 38.4723 43.38C38.9523 46.1 39.5523 48.24 40.2723 49.8C40.9923 51.36 41.7923 52.46 42.6723 53.1C43.5523 53.7 44.4123 54 45.2523 54C46.0923 54 46.9523 53.7 47.8323 53.1C48.7123 52.46 49.5123 51.36 50.2323 49.8C50.9523 48.24 51.5523 46.1 52.0323 43.38C52.5123 40.66 52.7523 37.2 52.7523 33ZM58.4523 33C58.4523 36.84 58.0723 40.14 57.3123 42.9C56.5523 45.66 55.5523 47.94 54.3123 49.74C53.0723 51.5 51.6523 52.8 50.0523 53.64C48.4923 54.48 46.8923 54.9 45.2523 54.9C43.6123 54.9 41.9923 54.48 40.3923 53.64C38.8323 52.8 37.4323 51.5 36.1923 49.74C34.9523 47.94 33.9523 45.66 33.1923 42.9C32.4323 40.14 32.0523 36.84 32.0523 33C32.0523 29.16 32.4323 25.86 33.1923 23.1C33.9523 20.34 34.9523 18.08 36.1923 16.32C37.4323 14.52 38.8323 13.2 40.3923 12.36C41.9923 11.52 43.6123 11.1 45.2523 11.1C46.8923 11.1 48.4923 11.52 50.0523 12.36C51.6523 13.2 53.0723 14.52 54.3123 16.32C55.5523 18.08 56.5523 20.34 57.3123 23.1C58.0723 25.86 58.4523 29.16 58.4523 33Z" fill="#D7BA96"/>
<path d="M46.2379 45.4V50.5L47.4379 50.8V51H43.3379V50.8L44.5379 50.5V45.5L41.4379 37.5L40.2379 37.2V37H44.4379V37.2L43.2379 37.5L46.0779 44.8L48.8379 37.7L47.5379 37.2V37H50.5379V37.2L49.2379 37.7L46.2379 45.4ZM51.8465 46.4C51.8465 47.2533 51.9065 47.9667 52.0265 48.54C52.1598 49.1133 52.3265 49.58 52.5265 49.94C52.7398 50.2867 52.9732 50.5333 53.2265 50.68C53.4932 50.8267 53.7665 50.9 54.0465 50.9C54.3932 50.9 54.7198 50.8333 55.0265 50.7C55.3332 50.5667 55.6065 50.3867 55.8465 50.16C56.0865 49.9333 56.2798 49.66 56.4265 49.34C56.5865 49.02 56.6932 48.6733 56.7465 48.3H57.0465C56.9932 48.7267 56.8732 49.1267 56.6865 49.5C56.5132 49.86 56.2865 50.1733 56.0065 50.44C55.7265 50.7067 55.3998 50.9133 55.0265 51.06C54.6665 51.22 54.2732 51.3 53.8465 51.3C53.3398 51.3 52.8598 51.1933 52.4065 50.98C51.9532 50.7533 51.5465 50.4333 51.1865 50.02C50.8398 49.5933 50.5598 49.08 50.3465 48.48C50.1465 47.8667 50.0465 47.1733 50.0465 46.4C50.0465 45.6 50.1465 44.8933 50.3465 44.28C50.5465 43.6667 50.8065 43.16 51.1265 42.76C51.4598 42.3467 51.8398 42.0333 52.2665 41.82C52.7065 41.6067 53.1665 41.5 53.6465 41.5C54.1265 41.5 54.5798 41.6067 55.0065 41.82C55.4465 42.0333 55.8265 42.3467 56.1465 42.76C56.4798 43.16 56.7465 43.6667 56.9465 44.28C57.1465 44.8933 57.2465 45.6 57.2465 46.4H51.8465ZM53.6465 41.8C53.4465 41.8 53.2465 41.8667 53.0465 42C52.8465 42.12 52.6598 42.34 52.4865 42.66C52.3132 42.98 52.1665 43.4133 52.0465 43.96C51.9398 44.4933 51.8732 45.1733 51.8465 46H55.4465C55.4198 45.1733 55.3465 44.4933 55.2265 43.96C55.1198 43.4133 54.9798 42.98 54.8065 42.66C54.6332 42.34 54.4465 42.12 54.2465 42C54.0465 41.8667 53.8465 41.8 53.6465 41.8ZM64.0527 46.1C62.8927 46.1 62.0327 46.36 61.4727 46.88C60.9261 47.3867 60.6527 48.0933 60.6527 49C60.6527 49.6 60.7994 50.0667 61.0927 50.4C61.3861 50.7333 61.7061 50.9 62.0527 50.9C62.3727 50.9 62.6527 50.8067 62.8927 50.62C63.1461 50.4333 63.3594 50.2267 63.5327 50C63.7327 49.7467 63.9061 49.4467 64.0527 49.1V46.1ZM62.5527 41.8C62.1527 41.8 61.8194 41.94 61.5527 42.22C61.2861 42.4867 61.1527 42.8467 61.1527 43.3C61.1527 43.4067 61.1527 43.5 61.1527 43.58C61.1661 43.66 61.1794 43.7333 61.1927 43.8C61.2061 43.8667 61.2261 43.9333 61.2527 44L59.6527 44.4C59.6261 44.36 59.6061 44.3067 59.5927 44.24C59.5794 44.1733 59.5661 44.1 59.5527 44.02C59.5527 43.94 59.5527 43.8333 59.5527 43.7C59.5527 43.42 59.6194 43.1533 59.7527 42.9C59.8861 42.6333 60.0794 42.4 60.3327 42.2C60.5994 41.9867 60.9127 41.82 61.2727 41.7C61.6461 41.5667 62.0727 41.5 62.5527 41.5C63.5127 41.5 64.2661 41.7733 64.8127 42.32C65.3727 42.8667 65.6527 43.5933 65.6527 44.5V50.5L66.8527 50.8V51H64.0527V49.8C63.9061 50.08 63.7194 50.3333 63.4927 50.56C63.3061 50.7467 63.0661 50.9133 62.7727 51.06C62.4927 51.22 62.1527 51.3 61.7527 51.3C60.7927 51.3 60.0661 51.0733 59.5727 50.62C59.0927 50.1667 58.8527 49.56 58.8527 48.8C58.8527 48.4267 58.9527 48.0533 59.1527 47.68C59.3661 47.3067 59.6794 46.9733 60.0927 46.68C60.5194 46.3867 61.0594 46.1533 61.7127 45.98C62.3661 45.7933 63.1461 45.7 64.0527 45.7V44.5C64.0527 43.5 63.8994 42.8 63.5927 42.4C63.2994 42 62.9527 41.8 62.5527 41.8ZM70.8496 50.5L72.0496 50.8V51H68.0496V50.8L69.2496 50.5V42.3L68.0496 42V41.8H70.8496V44.2C71.0229 43.7067 71.2296 43.26 71.4696 42.86C71.6829 42.5133 71.9429 42.2 72.2496 41.92C72.5563 41.64 72.9229 41.5 73.3496 41.5C73.4963 41.5 73.6363 41.5133 73.7696 41.54C73.9029 41.5533 74.0229 41.5733 74.1296 41.6C74.2496 41.64 74.3563 41.6733 74.4496 41.7L73.8496 43.2C73.7696 43.16 73.6829 43.1133 73.5896 43.06C73.5096 43.02 73.4096 42.9867 73.2896 42.96C73.1829 42.92 73.0696 42.9 72.9496 42.9C72.6029 42.9 72.2963 42.9933 72.0296 43.18C71.7629 43.3667 71.5429 43.5733 71.3696 43.8C71.1563 44.0667 70.9829 44.3667 70.8496 44.7V50.5ZM78.8566 51.3C78.43 51.3 78.0633 51.2467 77.7566 51.14C77.45 51.0467 77.2033 50.9333 77.0166 50.8C76.79 50.6533 76.6033 50.4867 76.4566 50.3C76.4033 50.5 76.29 50.6867 76.1166 50.86C75.9566 51.0333 75.8033 51.1467 75.6566 51.2H75.3566C75.37 51.0267 75.3833 50.8467 75.3966 50.66C75.41 50.5 75.4233 50.3333 75.4366 50.16C75.45 49.9733 75.4566 49.7867 75.4566 49.6C75.4566 49.4 75.45 49.2 75.4366 49C75.4233 48.8 75.41 48.62 75.3966 48.46C75.3833 48.2733 75.37 48.0867 75.3566 47.9H75.6566C75.91 48.86 76.2966 49.6 76.8166 50.12C77.3366 50.64 77.95 50.9 78.6566 50.9C79.2166 50.9 79.67 50.7267 80.0166 50.38C80.3766 50.0333 80.5566 49.6067 80.5566 49.1C80.5566 48.74 80.43 48.4267 80.1766 48.16C79.9366 47.8933 79.63 47.6533 79.2566 47.44C78.8833 47.2133 78.4833 46.9933 78.0566 46.78C77.63 46.5667 77.23 46.3267 76.8566 46.06C76.4833 45.7933 76.17 45.48 75.9166 45.12C75.6766 44.76 75.5566 44.32 75.5566 43.8C75.5566 43.5067 75.6233 43.22 75.7566 42.94C75.89 42.66 76.07 42.4133 76.2966 42.2C76.5366 41.9867 76.8233 41.82 77.1566 41.7C77.49 41.5667 77.8566 41.5 78.2566 41.5C78.6033 41.5 78.9033 41.5533 79.1566 41.66C79.4233 41.7667 79.65 41.88 79.8366 42C80.0366 42.1467 80.21 42.3133 80.3566 42.5C80.41 42.3 80.5166 42.1133 80.6766 41.94C80.85 41.7667 81.01 41.6533 81.1566 41.6H81.4566C81.43 41.7733 81.41 41.9533 81.3966 42.14C81.3833 42.3 81.37 42.4733 81.3566 42.66C81.3566 42.8467 81.3566 43.0267 81.3566 43.2C81.3566 43.4 81.3566 43.6067 81.3566 43.82C81.37 44.02 81.3833 44.2 81.3966 44.36C81.41 44.5467 81.43 44.7267 81.4566 44.9H81.1566C80.9033 43.94 80.53 43.2 80.0366 42.68C79.5433 42.16 79.0166 41.9 78.4566 41.9C78.0033 41.9 77.6233 42.0533 77.3166 42.36C77.01 42.6533 76.8566 43 76.8566 43.4C76.8566 43.7333 76.9833 44.02 77.2366 44.26C77.49 44.5 77.8033 44.7267 78.1766 44.94C78.55 45.14 78.9566 45.3467 79.3966 45.56C79.85 45.7733 80.2633 46.02 80.6366 46.3C81.01 46.58 81.3233 46.9133 81.5766 47.3C81.83 47.6867 81.9566 48.1533 81.9566 48.7C81.9566 49.02 81.8766 49.34 81.7166 49.66C81.57 49.9667 81.3566 50.2467 81.0766 50.5C80.81 50.74 80.4833 50.9333 80.0966 51.08C79.7233 51.2267 79.31 51.3 78.8566 51.3Z" fill="url(#paint0_linear)"/>
<defs>
<linearGradient id="paint0_linear" x1="43.3594" y1="39.0882" x2="83.0412" y2="50.4443" gradientUnits="userSpaceOnUse">
<stop/>
<stop offset="1" stop-color="#D7BA96"/>
</linearGradient>
</defs>
</svg>
