<svg width="73" height="73" viewBox="0 0 73 73" fill="none" xmlns="http://www.w3.org/2000/svg">
<g clip-path="url(#clip0)">
<path d="M6.66826 25.8569C8.87628 26.2853 10.5487 28.2326 10.5487 30.5639V36.8543H34.9501V13.0613H8.05905C7.47067 13.0613 6.89985 13.3037 6.493 13.7261C6.12339 14.1101 5.93042 14.6017 5.94996 15.1104C6.02736 17.1441 6.26873 20.7549 6.66856 25.8558L6.66826 25.8569Z" fill="#EDDFCE"/>
<path d="M67.2468 28.8669C66.3111 28.8669 65.5499 29.6281 65.5499 30.5638V37.4937C66.9195 38.3005 67.8411 39.7898 67.8411 41.491V47.1142C67.8411 47.4942 67.817 47.8696 67.7068 48.2166C67.4193 49.1213 66.8254 50.4591 65.3719 51.2113L67.3611 58.7828C67.5439 59.4785 68.1715 59.9388 68.8586 59.9388C68.9889 59.9388 69.1214 59.9223 69.2534 59.8875C70.081 59.6701 70.5757 58.8228 70.3583 57.9954L67.9832 48.9558H69.6617C70.5806 48.9558 71.3108 48.1937 71.3604 47.183C71.5584 43.1457 72.8527 31.7775 73.0002 30.4893C72.9611 29.5881 72.2156 28.8669 71.305 28.8669H67.2468Z" fill="#EFB166"/>
<path d="M1.69521 28.8669C0.784555 28.8669 0.0390827 29.5881 0 30.4892C0.147324 31.7774 1.44148 43.1456 1.63949 47.1829C1.68911 48.1936 2.41947 48.9557 3.33837 48.9557H5.01648L2.6419 57.9953C2.4245 58.8229 2.9193 59.67 3.74675 59.8874C3.87866 59.9221 4.01117 59.9387 4.14155 59.9387C4.82855 59.9387 5.45616 59.4783 5.63906 58.7826L7.628 51.2112C6.28255 50.1946 5.46273 49.0133 5.29312 48.2177C5.21709 47.8612 5.15846 47.4945 5.15846 47.1139V41.4907C5.15846 39.7891 6.08042 38.2997 7.4503 37.493V30.5636C7.4503 29.6279 6.6891 28.8667 5.75341 28.8667H1.69521V28.8669Z" fill="#EDDFCE"/>
<path d="M62.4513 30.5639C62.4513 28.233 64.1233 26.286 66.3309 25.8572L66.3306 25.8562C66.7302 20.7553 66.9718 17.1441 67.0492 15.1106C67.0686 14.6018 66.8756 14.1102 66.5058 13.7262C66.0991 13.3038 65.5285 13.0615 64.9399 13.0615H38.0488V36.8545H62.4513V30.5639Z" fill="#EFB166"/>
<path d="M34.2649 40H8.73507C8.32977 40 8 40.7138 8 41.5912V47.4088C8 47.938 8.12041 48.4063 8.3046 48.6958L8.30518 48.6956C8.30817 48.7004 8.31073 48.7059 8.31372 48.7106C8.43311 48.8923 8.57832 49 8.73507 49H34.2649C34.4215 49 34.5666 48.8926 34.686 48.7111C34.6891 48.7062 34.6917 48.7004 34.6948 48.6956L34.6955 48.6958C34.8796 48.4064 35 47.9381 35 47.409V41.5913C35 40.7138 34.6702 40 34.2649 40Z" fill="#EDDFCE"/>
<path d="M64.2649 40H38.7351C38.3298 40 38 40.7138 38 41.5912V47.4088C38 47.938 38.1204 48.4063 38.3046 48.6958L38.3052 48.6956C38.3082 48.7004 38.3107 48.7059 38.3137 48.7106C38.4331 48.8923 38.5783 49 38.7351 49H64.2649C64.4215 49 64.5666 48.8926 64.686 48.7111C64.6891 48.7062 64.6917 48.7004 64.6948 48.6956L64.6955 48.6958C64.8796 48.4064 65 47.9381 65 47.409V41.5913C65 40.7138 64.6702 40 64.2649 40Z" fill="#EFB166"/>
<path d="M24 10.4999C27.8296 6.33731 38.8173 0.540642 52 10.4999M52 10.4999L51.5 6.99987M52 10.4999L49 11" stroke="url(#paint0_linear)"/>
</g>
<defs>
<linearGradient id="paint0_linear" x1="24" y1="10" x2="51.5" y2="10.5" gradientUnits="userSpaceOnUse">
<stop stop-color="#EDDFCE"/>
<stop offset="1" stop-color="#EFB166"/>
</linearGradient>
<clipPath id="clip0">
<rect width="73" height="73" fill="white"/>
</clipPath>
</defs>
</svg>
