<svg width="35" height="35" viewBox="0 0 35 35" fill="none" xmlns="http://www.w3.org/2000/svg">
<path d="M17.5 35C27.165 35 35 27.165 35 17.5C35 7.83502 27.165 0 17.5 0C7.83502 0 0 7.83502 0 17.5C0 27.165 7.83502 35 17.5 35Z" fill="#FECD4B"/>
<path d="M25.615 9.08618C23.5241 9.35086 21.3439 9.34164 19.1499 9.13273C16.0859 8.89703 11.6078 7.48288 9.95793 10.3112C7.3075 14.839 8.61473 20.6358 9.23236 25.7657L18.4429 34.9743C27.3561 34.501 34.4996 27.3586 34.9743 18.4457L25.615 9.08618Z" fill="#E7B021"/>
<path d="M21.5487 7.4834H13.4512C10.1604 7.4834 7.48315 10.1606 7.48315 13.4514V21.549C7.48315 24.8396 10.1604 27.5171 13.4513 27.5171H21.5488C24.8395 27.5171 27.5169 24.8398 27.5169 21.549V13.4514C27.5168 10.1606 24.8395 7.4834 21.5487 7.4834ZM25.5014 21.549C25.5014 23.732 23.7318 25.5017 21.5488 25.5017H13.4513C11.2683 25.5017 9.49859 23.732 9.49859 21.549V13.4515C9.49859 11.2685 11.2683 9.49877 13.4513 9.49877H21.5488C23.7318 9.49877 25.5014 11.2686 25.5014 13.4515V21.549Z" fill="white"/>
<path d="M17.5 12.3184C14.643 12.3184 12.3185 14.6429 12.3185 17.4999C12.3185 20.3567 14.643 22.6812 17.5 22.6812C20.357 22.6812 22.6813 20.3569 22.6813 17.4999C22.6813 14.6429 20.357 12.3184 17.5 12.3184ZM17.5 20.6658C15.7514 20.6658 14.3339 19.2485 14.3339 17.4999C14.3339 15.7512 15.7514 14.3337 17.5 14.3337C19.2485 14.3337 20.6659 15.7512 20.6659 17.4999C20.6659 19.2484 19.2485 20.6658 17.5 20.6658Z" fill="white"/>
<path d="M23.9328 12.3578C23.9328 13.0435 23.3769 13.5994 22.6912 13.5994C22.0056 13.5994 21.4496 13.0435 21.4496 12.3578C21.4496 11.6721 22.0056 11.1162 22.6912 11.1162C23.377 11.1162 23.9328 11.672 23.9328 12.3578Z" fill="#D1D1D1"/>
<path d="M21.5488 7.4834H17.4608V9.49877H21.5488C23.7318 9.49877 25.5015 11.2686 25.5015 13.4515V21.549C25.5015 23.732 23.7318 25.5017 21.5488 25.5017H17.4608V27.5171H21.5488C24.8395 27.5171 27.5168 24.8398 27.5168 21.549V13.4514C27.5168 10.1606 24.8395 7.4834 21.5488 7.4834Z" fill="#D1D1D1"/>
<path d="M17.5 12.3184C17.4868 12.3184 17.4739 12.3193 17.4608 12.3193V14.3347C17.4738 14.3346 17.4868 14.3337 17.5 14.3337C19.2486 14.3337 20.6659 15.7512 20.6659 17.4999C20.6659 19.2484 19.2486 20.6658 17.5 20.6658C17.4868 20.6658 17.4738 20.665 17.4608 20.6648V22.6802C17.4739 22.6803 17.4868 22.6812 17.5 22.6812C20.357 22.6812 22.6813 20.3568 22.6813 17.4999C22.6813 14.6429 20.357 12.3184 17.5 12.3184Z" fill="#D1D1D1"/>
</svg>
