<svg width="370" height="225" viewBox="0 0 370 225" fill="none" xmlns="http://www.w3.org/2000/svg">
<rect width="370" height="225" rx="30" fill="white"/>
<path d="M86.4322 84.3C85.3989 84.3 84.5489 83.9833 83.8822 83.35C83.2489 82.6833 82.9322 81.8333 82.9322 80.8C82.9322 79.5 83.4656 78.0833 84.5322 76.55C85.6322 74.9833 87.0822 73.6 88.8822 72.4L89.6322 73.15C88.9322 73.8833 88.3822 74.5667 87.9822 75.2C87.5822 75.8333 87.3822 76.35 87.3822 76.75C87.3822 76.9833 87.4489 77.2 87.5822 77.4C87.7489 77.6 87.9822 77.8167 88.2822 78.05C88.7489 78.4167 89.1156 78.8 89.3822 79.2C89.6489 79.6 89.7822 80.1333 89.7822 80.8C89.7822 81.8333 89.4656 82.6833 88.8322 83.35C88.1989 83.9833 87.3989 84.3 86.4322 84.3ZM96.1322 84.3C95.0989 84.3 94.2489 83.9833 93.5822 83.35C92.9489 82.6833 92.6322 81.8333 92.6322 80.8C92.6322 79.5 93.1656 78.0833 94.2322 76.55C95.3322 74.9833 96.7822 73.6 98.5822 72.4L99.3322 73.15C98.6322 73.8833 98.0822 74.5667 97.6822 75.2C97.2822 75.8333 97.0822 76.35 97.0822 76.75C97.0822 76.9833 97.1489 77.2 97.2822 77.4C97.4489 77.6 97.6822 77.8167 97.9822 78.05C98.4489 78.4167 98.8156 78.8 99.0822 79.2C99.3489 79.6 99.4822 80.1333 99.4822 80.8C99.4822 81.8333 99.1656 82.6833 98.5322 83.35C97.8989 83.9833 97.0989 84.3 96.1322 84.3ZM138.508 122.5C137.008 122.5 135.524 122.067 134.058 121.2C132.624 120.367 130.791 119.067 128.558 117.3C126.891 115.967 125.458 114.883 124.258 114.05C123.091 113.25 121.808 112.567 120.408 112C119.041 111.433 117.641 111.15 116.208 111.15C115.708 111.15 115.324 111.167 115.058 111.2L122.508 76.55C120.274 77.45 118.541 78.8333 117.308 80.7C116.108 82.5333 115.508 84.7833 115.508 87.45C115.508 88.6833 115.624 89.55 115.858 90.05C116.091 90.5167 116.208 90.7833 116.208 90.85C114.408 90.85 113.058 90.4833 112.158 89.75C111.291 88.9833 110.858 87.7333 110.858 86C110.858 83.8667 111.724 81.8 113.458 79.8C115.224 77.7667 117.474 76.1333 120.208 74.9C122.941 73.6333 125.674 73 128.408 73C128.874 73 129.541 73.0333 130.408 73.1L122.708 109C123.641 109.233 124.591 109.567 125.558 110C126.558 110.467 127.758 111.083 129.158 111.85C131.324 113.017 133.174 113.9 134.708 114.5C136.241 115.133 137.841 115.45 139.508 115.45C141.008 115.45 142.408 115.183 143.708 114.65C143.441 117.083 142.841 119 141.908 120.4C141.008 121.8 139.874 122.5 138.508 122.5ZM135.503 110.3C133.603 110.3 132.02 109.65 130.753 108.35C129.486 107.05 128.853 105.017 128.853 102.25C128.853 99.7833 129.336 97.2 130.303 94.5C131.303 91.7667 132.77 89.4667 134.703 87.6C136.67 85.7 139.003 84.75 141.703 84.75C143.07 84.75 144.086 84.9833 144.753 85.45C145.42 85.9167 145.753 86.5333 145.753 87.3V87.65L146.303 85H153.503L149.903 102C149.77 102.5 149.703 103.033 149.703 103.6C149.703 105.033 150.386 105.75 151.753 105.75C152.686 105.75 153.486 105.317 154.153 104.45C154.853 103.583 155.403 102.45 155.803 101.05H157.903C156.67 104.65 155.136 107.1 153.303 108.4C151.503 109.667 149.686 110.3 147.853 110.3C146.453 110.3 145.32 109.917 144.453 109.15C143.62 108.35 143.12 107.2 142.953 105.7C141.986 107.067 140.903 108.183 139.703 109.05C138.536 109.883 137.136 110.3 135.503 110.3ZM138.753 105.45C139.586 105.45 140.403 105.067 141.203 104.3C142.036 103.5 142.603 102.417 142.903 101.05L145.303 89.75C145.303 89.3167 145.136 88.9 144.803 88.5C144.47 88.0667 143.953 87.85 143.253 87.85C141.92 87.85 140.72 88.6333 139.653 90.2C138.586 91.7333 137.753 93.6 137.153 95.8C136.553 97.9667 136.253 99.8833 136.253 101.55C136.253 103.217 136.486 104.283 136.953 104.75C137.453 105.217 138.053 105.45 138.753 105.45ZM186.221 110.3C184.188 110.3 182.688 109.767 181.721 108.7C180.788 107.6 180.321 106.25 180.321 104.65C180.321 103.95 180.405 103.167 180.571 102.3C180.738 101.4 180.905 100.533 181.071 99.7C181.271 98.8667 181.405 98.3333 181.471 98.1C181.738 96.9333 181.988 95.7833 182.221 94.65C182.455 93.5167 182.571 92.6 182.571 91.9C182.571 90.2 181.971 89.35 180.771 89.35C179.905 89.35 179.138 89.7833 178.471 90.65C177.805 91.4833 177.271 92.5833 176.871 93.95L173.471 110H166.271L169.921 92.75C170.021 92.35 170.071 91.9333 170.071 91.5C170.071 90.0333 169.571 89.3 168.571 89.3C167.638 89.3 166.821 89.7333 166.121 90.6C165.455 91.4333 164.921 92.55 164.521 93.95L161.121 110H153.921L159.221 85H166.421L165.871 87.6C167.571 85.7 169.605 84.75 171.971 84.75C174.905 84.75 176.621 86.1833 177.121 89.05C178.955 86.2167 181.271 84.8 184.071 84.8C185.771 84.8 187.121 85.2667 188.121 86.2C189.121 87.1333 189.621 88.55 189.621 90.45C189.621 91.4167 189.505 92.5 189.271 93.7C189.038 94.8667 188.705 96.3 188.271 98C188.005 99.0333 187.755 100.05 187.521 101.05C187.321 102.017 187.221 102.783 187.221 103.35C187.221 104.017 187.371 104.533 187.671 104.9C187.971 105.267 188.488 105.45 189.221 105.45C190.221 105.45 191.021 105.1 191.621 104.4C192.221 103.667 192.821 102.55 193.421 101.05H195.521C194.288 104.717 192.855 107.183 191.221 108.45C189.621 109.683 187.955 110.3 186.221 110.3ZM200.069 110.3C197.802 110.3 196.069 109.75 194.869 108.65C193.669 107.517 193.069 105.933 193.069 103.9C193.069 102.9 193.186 101.95 193.419 101.05L198.769 76L206.169 75L203.769 86.25C204.702 85.6833 205.469 85.3167 206.069 85.15C206.669 84.95 207.269 84.85 207.869 84.85C211.802 84.85 213.769 87.7 213.769 93.4C213.769 95.7 213.319 98.1667 212.419 100.8C211.552 103.4 210.086 105.633 208.019 107.5C205.986 109.367 203.336 110.3 200.069 110.3ZM202.869 105.45C203.902 105.45 204.869 104.817 205.769 103.55C206.669 102.25 207.386 100.65 207.919 98.75C208.452 96.8167 208.719 94.9667 208.719 93.2C208.719 91.8667 208.486 90.7333 208.019 89.8C207.552 88.8667 206.902 88.4 206.069 88.4C205.569 88.4 205.002 88.4833 204.369 88.65C203.769 88.7833 203.352 89 203.119 89.3L200.369 102C200.269 102.4 200.219 102.783 200.219 103.15C200.219 104.683 201.102 105.45 202.869 105.45ZM222.786 110.3C220.319 110.3 218.402 109.667 217.036 108.4C215.669 107.1 214.986 105.083 214.986 102.35C214.986 100.05 215.436 97.5167 216.336 94.75C217.236 91.9833 218.702 89.6 220.736 87.6C222.769 85.5667 225.352 84.55 228.486 84.55C232.152 84.55 233.986 86.15 233.986 89.35C233.986 91.2167 233.452 92.9333 232.386 94.5C231.319 96.0667 229.902 97.3333 228.136 98.3C226.369 99.2333 224.486 99.7667 222.486 99.9C222.419 100.9 222.386 101.567 222.386 101.9C222.386 103.533 222.669 104.65 223.236 105.25C223.802 105.817 224.719 106.1 225.986 106.1C227.786 106.1 229.319 105.683 230.586 104.85C231.886 104.017 233.302 102.75 234.836 101.05H236.536C232.836 107.217 228.252 110.3 222.786 110.3ZM222.886 97.5C224.119 97.4333 225.286 97 226.386 96.2C227.519 95.4 228.419 94.3833 229.086 93.15C229.786 91.9167 230.136 90.6167 230.136 89.25C230.136 87.8833 229.719 87.2 228.886 87.2C227.686 87.2 226.502 88.25 225.336 90.35C224.202 92.45 223.386 94.8333 222.886 97.5ZM238.225 85H245.425L244.775 88.1C245.909 87.1 246.925 86.3333 247.825 85.8C248.759 85.2667 249.759 85 250.825 85C251.892 85 252.725 85.3667 253.325 86.1C253.959 86.8333 254.275 87.7167 254.275 88.75C254.275 89.7167 253.959 90.5667 253.325 91.3C252.692 92.0333 251.809 92.4 250.675 92.4C249.942 92.4 249.442 92.2333 249.175 91.9C248.942 91.5333 248.759 91.0167 248.625 90.35C248.525 89.9167 248.425 89.6 248.325 89.4C248.225 89.2 248.042 89.1 247.775 89.1C247.075 89.1 246.475 89.25 245.975 89.55C245.509 89.8167 244.892 90.3 244.125 91L240.125 110H232.925L238.225 85ZM258.324 110.3C256.624 110.3 255.357 109.783 254.524 108.75C253.724 107.717 253.324 106.35 253.324 104.65C253.324 103.783 253.424 102.9 253.624 102L256.824 87H255.174L255.574 85H257.224L258.724 78.1L266.124 77.1C265.824 78.3667 265.657 79.1167 265.624 79.35C265.391 80.2833 264.991 82.1667 264.424 85H267.424L267.024 87H264.024L260.824 102C260.657 102.733 260.574 103.317 260.574 103.75C260.574 104.95 261.157 105.55 262.324 105.55C262.924 105.55 263.357 105.5 263.624 105.4C262.957 107.333 262.174 108.633 261.274 109.3C260.374 109.967 259.391 110.3 258.324 110.3ZM286.432 84.3C285.399 84.3 284.549 83.9833 283.882 83.35C283.249 82.6833 282.932 81.8333 282.932 80.8C282.932 79.5 283.466 78.0833 284.532 76.55C285.632 74.9833 287.082 73.6 288.882 72.4L289.632 73.15C288.932 73.8833 288.382 74.5667 287.982 75.2C287.582 75.8333 287.382 76.35 287.382 76.75C287.382 76.9833 287.449 77.2 287.582 77.4C287.749 77.6 287.982 77.8167 288.282 78.05C288.749 78.4167 289.116 78.8 289.382 79.2C289.649 79.6 289.782 80.1333 289.782 80.8C289.782 81.8333 289.466 82.6833 288.832 83.35C288.199 83.9833 287.399 84.3 286.432 84.3ZM296.132 84.3C295.099 84.3 294.249 83.9833 293.582 83.35C292.949 82.6833 292.632 81.8333 292.632 80.8C292.632 79.5 293.166 78.0833 294.232 76.55C295.332 74.9833 296.782 73.6 298.582 72.4L299.332 73.15C298.632 73.8833 298.082 74.5667 297.682 75.2C297.282 75.8333 297.082 76.35 297.082 76.75C297.082 76.9833 297.149 77.2 297.282 77.4C297.449 77.6 297.682 77.8167 297.982 78.05C298.449 78.4167 298.816 78.8 299.082 79.2C299.349 79.6 299.482 80.1333 299.482 80.8C299.482 81.8333 299.166 82.6833 298.532 83.35C297.899 83.9833 297.099 84.3 296.132 84.3ZM92.7933 132.94C91.1666 132.913 89.9599 132.493 89.1733 131.68C88.3866 130.853 87.9933 129.827 87.9933 128.6C87.9933 126.773 88.6399 125.38 89.9333 124.42C91.2266 123.447 92.9133 122.853 94.9933 122.64L95.6333 119.64C94.3133 119.733 93.3533 119.933 92.7533 120.24C92.1666 120.533 91.8733 120.987 91.8733 121.6C91.8733 121.853 91.9266 122.14 92.0333 122.46C91.9533 122.473 91.8399 122.48 91.6933 122.48C91.1999 122.48 90.7933 122.367 90.4733 122.14C90.1666 121.913 90.0133 121.58 90.0133 121.14C90.0399 120.393 90.5799 119.82 91.6333 119.42C92.6866 119.02 93.9533 118.82 95.4333 118.82C96.6199 118.82 97.6799 118.92 98.6133 119.12L97.8533 122.62C99.4399 122.78 100.647 123.253 101.473 124.04C102.313 124.813 102.733 125.773 102.733 126.92C102.733 128.013 102.46 129.02 101.913 129.94C101.367 130.86 100.593 131.593 99.5933 132.14C98.5933 132.673 97.4466 132.94 96.1533 132.94H95.6733L95.2333 135H92.3533L92.7933 132.94ZM94.7733 123.62C93.4266 123.86 92.4199 124.407 91.7533 125.26C91.0866 126.1 90.7533 127.307 90.7533 128.88C90.7533 129.707 90.9533 130.42 91.3533 131.02C91.7666 131.62 92.3133 131.947 92.9933 132L94.7733 123.62ZM95.9933 132C96.7933 132 97.4999 131.747 98.1133 131.24C98.7399 130.72 99.2266 130.06 99.5733 129.26C99.9199 128.447 100.093 127.62 100.093 126.78C100.093 124.993 99.2799 123.94 97.6533 123.62L95.8733 132H95.9933ZM105.736 135.12C104.976 135.12 104.343 134.86 103.836 134.34C103.329 133.82 103.076 133.007 103.076 131.9C103.076 130.913 103.269 129.88 103.656 128.8C104.056 127.707 104.643 126.787 105.416 126.04C106.203 125.28 107.136 124.9 108.216 124.9C108.763 124.9 109.169 124.993 109.436 125.18C109.703 125.367 109.836 125.613 109.836 125.92V126.06L110.056 125H112.936L111.496 131.8C111.443 132 111.416 132.213 111.416 132.44C111.416 133.013 111.689 133.3 112.236 133.3C112.609 133.3 112.929 133.127 113.196 132.78C113.476 132.433 113.696 131.98 113.856 131.42H114.696C114.203 132.86 113.589 133.84 112.856 134.36C112.136 134.867 111.409 135.12 110.676 135.12C110.116 135.12 109.663 134.967 109.316 134.66C108.983 134.34 108.783 133.88 108.716 133.28C108.329 133.827 107.896 134.273 107.416 134.62C106.949 134.953 106.389 135.12 105.736 135.12ZM107.036 133.18C107.369 133.18 107.696 133.027 108.016 132.72C108.349 132.4 108.576 131.967 108.696 131.42L109.656 126.9C109.656 126.727 109.589 126.56 109.456 126.4C109.323 126.227 109.116 126.14 108.836 126.14C108.303 126.14 107.823 126.453 107.396 127.08C106.969 127.693 106.636 128.44 106.396 129.32C106.156 130.187 106.036 130.953 106.036 131.62C106.036 132.287 106.129 132.713 106.316 132.9C106.516 133.087 106.756 133.18 107.036 133.18ZM116.803 135.08C115.777 135.08 114.983 134.807 114.423 134.26C113.877 133.7 113.603 132.847 113.603 131.7C113.603 130.66 113.817 129.667 114.243 128.72C114.683 127.773 115.317 127.007 116.143 126.42C116.97 125.833 117.943 125.54 119.063 125.54L119.403 125.56C119.19 125.307 118.863 124.96 118.423 124.52C117.93 124.04 117.563 123.633 117.323 123.3C117.083 122.953 116.963 122.573 116.963 122.16C116.963 121.653 117.137 121.28 117.483 121.04C117.83 120.8 118.377 120.68 119.123 120.68H122.163H122.783C123.13 120.68 123.383 120.66 123.543 120.62C123.703 120.58 123.83 120.5 123.923 120.38C124.017 120.247 124.103 120.027 124.183 119.72H125.063C124.85 120.76 124.617 121.533 124.363 122.04C124.11 122.547 123.777 122.893 123.363 123.08C122.963 123.267 122.403 123.36 121.683 123.36H119.763C119.683 123.36 119.617 123.38 119.563 123.42C119.523 123.447 119.503 123.507 119.503 123.6C119.503 123.653 119.617 123.827 119.843 124.12C120.337 124.72 120.757 125.367 121.103 126.06C121.45 126.753 121.623 127.567 121.623 128.5C121.623 129.513 121.423 130.533 121.023 131.56C120.637 132.573 120.077 133.413 119.343 134.08C118.61 134.747 117.763 135.08 116.803 135.08ZM117.563 133.28C118.11 133.28 118.563 132.947 118.923 132.28C119.283 131.613 119.543 130.86 119.703 130.02C119.877 129.18 119.963 128.533 119.963 128.08C119.963 127.573 119.903 127.227 119.783 127.04C119.663 126.853 119.47 126.76 119.203 126.76C118.617 126.76 118.123 127.08 117.723 127.72C117.323 128.36 117.023 129.087 116.823 129.9C116.623 130.713 116.523 131.347 116.523 131.8C116.523 132.373 116.597 132.767 116.743 132.98C116.903 133.18 117.177 133.28 117.563 133.28ZM123.977 124.26H126.857L126.537 125.76C127.204 125.187 127.984 124.9 128.877 124.9C129.624 124.9 130.217 125.147 130.657 125.64C131.097 126.133 131.317 126.94 131.317 128.06C131.317 129.113 131.164 130.18 130.857 131.26C130.55 132.327 130.03 133.24 129.297 134C128.564 134.747 127.597 135.12 126.397 135.12C125.544 135.12 124.977 134.88 124.697 134.4L123.657 139.28L120.637 140L123.977 124.26ZM125.777 133.38C126.417 133.38 126.944 133.08 127.357 132.48C127.784 131.88 128.09 131.167 128.277 130.34C128.477 129.5 128.577 128.72 128.577 128C128.577 126.893 128.244 126.34 127.577 126.34C127.337 126.34 127.09 126.427 126.837 126.6C126.597 126.773 126.384 127.013 126.197 127.32L125.017 132.92C125.124 133.227 125.377 133.38 125.777 133.38ZM133.793 135.12C133.153 135.12 132.633 134.92 132.233 134.52C131.846 134.12 131.652 133.52 131.652 132.72C131.652 132.387 131.706 131.953 131.812 131.42L133.173 125H136.053L134.613 131.8C134.573 132 134.553 132.187 134.553 132.36C134.553 132.907 134.753 133.18 135.153 133.18C135.526 133.18 135.846 133.027 136.113 132.72C136.379 132.4 136.593 131.967 136.753 131.42L138.113 125H140.993L139.553 131.8C139.499 132 139.473 132.213 139.473 132.44C139.473 132.707 139.533 132.9 139.653 133.02C139.786 133.127 139.999 133.18 140.293 133.18C140.666 133.18 140.986 133.02 141.253 132.7C141.533 132.38 141.753 131.953 141.912 131.42H142.753C142.259 132.86 141.646 133.84 140.913 134.36C140.193 134.867 139.466 135.12 138.733 135.12C138.159 135.12 137.699 134.96 137.353 134.64C137.019 134.32 136.819 133.847 136.753 133.22C136.299 133.953 135.819 134.453 135.313 134.72C134.819 134.987 134.313 135.12 133.793 135.12ZM149.13 135.12C148.33 135.12 147.723 134.927 147.31 134.54C146.91 134.14 146.71 133.593 146.71 132.9C146.71 132.713 146.757 132.34 146.85 131.78C146.917 131.447 146.95 131.187 146.95 131C146.95 130.36 146.697 130.04 146.19 130.04C146.017 130.04 145.85 130.093 145.69 130.2C145.543 130.293 145.283 130.487 144.91 130.78L144.03 135H141.15L143.29 125H146.17L145.31 128.96C146.217 127.893 146.937 127.08 147.47 126.52C148.003 125.96 148.49 125.54 148.93 125.26C149.383 124.967 149.823 124.82 150.25 124.82C151.077 124.82 151.49 125.26 151.49 126.14C151.49 126.54 151.377 126.86 151.15 127.1C150.937 127.327 150.63 127.44 150.23 127.44C149.857 127.44 149.577 127.34 149.39 127.14C149.203 126.927 149.117 126.687 149.13 126.42C148.877 126.58 148.65 126.76 148.45 126.96C148.25 127.16 148.03 127.42 147.79 127.74C147.51 128.113 147.237 128.433 146.97 128.7C147.237 128.647 147.517 128.62 147.81 128.62C148.503 128.62 148.99 128.773 149.27 129.08C149.563 129.387 149.71 129.853 149.71 130.48C149.71 130.667 149.67 130.973 149.59 131.4C149.51 131.853 149.47 132.2 149.47 132.44C149.47 132.933 149.737 133.18 150.27 133.18C150.643 133.18 150.937 133.053 151.15 132.8C151.377 132.547 151.637 132.087 151.93 131.42H152.77C151.93 133.887 150.717 135.12 149.13 135.12ZM154.33 135.12C153.57 135.12 152.936 134.86 152.43 134.34C151.923 133.82 151.67 133.007 151.67 131.9C151.67 130.913 151.863 129.88 152.25 128.8C152.65 127.707 153.236 126.787 154.01 126.04C154.796 125.28 155.73 124.9 156.81 124.9C157.356 124.9 157.763 124.993 158.03 125.18C158.296 125.367 158.43 125.613 158.43 125.92V126.06L158.65 125H161.53L160.09 131.8C160.036 132 160.01 132.213 160.01 132.44C160.01 132.707 160.07 132.9 160.19 133.02C160.323 133.127 160.536 133.18 160.83 133.18C161.016 133.18 161.163 133.153 161.27 133.1C160.976 133.847 160.696 134.373 160.43 134.68C160.163 134.973 159.776 135.12 159.27 135.12C158.723 135.12 158.276 134.96 157.93 134.64C157.596 134.307 157.39 133.847 157.31 133.26C156.496 134.5 155.503 135.12 154.33 135.12ZM155.63 133.18C155.963 133.18 156.29 133.027 156.61 132.72C156.943 132.4 157.17 131.967 157.29 131.42L158.25 126.9C158.25 126.727 158.183 126.56 158.05 126.4C157.916 126.227 157.71 126.14 157.43 126.14C156.896 126.14 156.416 126.453 155.99 127.08C155.563 127.693 155.23 128.44 154.99 129.32C154.75 130.187 154.63 130.953 154.63 131.62C154.63 132.287 154.723 132.713 154.91 132.9C155.11 133.087 155.35 133.18 155.63 133.18ZM169.142 140C168.502 140 167.968 139.833 167.542 139.5C167.115 139.167 166.902 138.687 166.902 138.06C166.902 137.3 167.208 136.687 167.822 136.22C168.435 135.767 169.215 135.387 170.162 135.08L170.402 134.02C169.722 134.753 168.922 135.12 168.002 135.12C167.242 135.12 166.608 134.86 166.102 134.34C165.595 133.82 165.342 133.007 165.342 131.9C165.342 130.913 165.535 129.88 165.922 128.8C166.322 127.707 166.908 126.787 167.682 126.04C168.468 125.28 169.402 124.9 170.482 124.9C171.028 124.9 171.435 124.993 171.702 125.18C171.968 125.367 172.102 125.613 172.102 125.92V126.04L172.322 125H175.202L173.222 134.28C173.862 134.067 174.375 133.747 174.762 133.32C175.148 132.893 175.475 132.26 175.742 131.42H176.582C176.222 132.607 175.735 133.48 175.122 134.04C174.508 134.587 173.815 134.96 173.042 135.16L172.742 136.6C172.475 137.893 172.015 138.78 171.362 139.26C170.708 139.753 169.968 140 169.142 140ZM169.302 133.18C169.608 133.18 169.922 133.04 170.242 132.76C170.562 132.48 170.782 132.1 170.902 131.62L171.922 126.88C171.922 126.72 171.855 126.56 171.722 126.4C171.588 126.227 171.382 126.14 171.102 126.14C170.568 126.14 170.088 126.453 169.662 127.08C169.235 127.693 168.902 128.44 168.662 129.32C168.422 130.187 168.302 130.953 168.302 131.62C168.302 132.287 168.395 132.713 168.582 132.9C168.782 133.087 169.022 133.18 169.302 133.18ZM168.682 138.44C168.908 138.44 169.128 138.287 169.342 137.98C169.555 137.673 169.722 137.233 169.842 136.66L169.962 136.08C168.655 136.56 168.002 137.127 168.002 137.78C168.002 137.953 168.062 138.107 168.182 138.24C168.302 138.373 168.468 138.44 168.682 138.44ZM177.718 135.12C177.078 135.12 176.558 134.92 176.158 134.52C175.772 134.12 175.578 133.52 175.578 132.72C175.578 132.387 175.632 131.953 175.738 131.42L177.098 125H179.978L178.538 131.8C178.498 132 178.478 132.187 178.478 132.36C178.478 132.907 178.678 133.18 179.078 133.18C179.452 133.18 179.772 133.027 180.038 132.72C180.305 132.4 180.518 131.967 180.678 131.42L182.038 125H184.918L183.478 131.8C183.425 132 183.398 132.213 183.398 132.44C183.398 132.707 183.458 132.9 183.578 133.02C183.712 133.127 183.925 133.18 184.218 133.18C184.592 133.18 184.912 133.02 185.178 132.7C185.458 132.38 185.678 131.953 185.838 131.42H186.678C186.185 132.86 185.572 133.84 184.838 134.36C184.118 134.867 183.392 135.12 182.658 135.12C182.085 135.12 181.625 134.96 181.278 134.64C180.945 134.32 180.745 133.847 180.678 133.22C180.225 133.953 179.745 134.453 179.238 134.72C178.745 134.987 178.238 135.12 177.718 135.12ZM188.336 140C187.696 140 187.163 139.833 186.736 139.5C186.309 139.167 186.096 138.687 186.096 138.06C186.096 136.767 187.143 135.787 189.236 135.12C189.196 133.707 188.716 133 187.796 133H187.176L187.436 131.8H188.016C188.483 131.8 188.903 131.647 189.276 131.34C189.649 131.033 189.943 130.62 190.156 130.1C190.369 129.567 190.476 128.987 190.476 128.36C190.476 127.893 190.369 127.493 190.156 127.16C189.943 126.813 189.603 126.64 189.136 126.64C188.643 126.64 188.216 126.853 187.856 127.28C187.496 127.693 187.209 128.173 186.996 128.72H186.036C186.463 127.547 186.996 126.607 187.636 125.9C188.289 125.18 189.189 124.82 190.336 124.82C191.309 124.82 192.076 125.1 192.636 125.66C193.209 126.22 193.496 127 193.496 128C193.496 128.8 193.303 129.527 192.916 130.18C192.543 130.82 192.109 131.34 191.616 131.74C191.123 132.127 190.716 132.353 190.396 132.42C190.743 132.54 191.069 132.78 191.376 133.14C191.696 133.5 191.916 133.927 192.036 134.42C192.796 134.193 193.389 133.867 193.816 133.44C194.256 133.013 194.629 132.34 194.936 131.42H195.776C195.416 132.633 194.916 133.52 194.276 134.08C193.636 134.64 192.916 135.02 192.116 135.22C192.089 136.713 191.729 137.88 191.036 138.72C190.356 139.573 189.456 140 188.336 140ZM187.876 138.44C188.156 138.44 188.423 138.207 188.676 137.74C188.929 137.273 189.096 136.72 189.176 136.08C187.856 136.533 187.196 137.1 187.196 137.78C187.196 137.98 187.249 138.14 187.356 138.26C187.476 138.38 187.649 138.44 187.876 138.44ZM197.338 135.12C196.578 135.12 195.944 134.86 195.438 134.34C194.931 133.82 194.677 133.007 194.677 131.9C194.677 130.913 194.871 129.88 195.258 128.8C195.658 127.707 196.244 126.787 197.018 126.04C197.804 125.28 198.738 124.9 199.818 124.9C200.364 124.9 200.771 124.993 201.038 125.18C201.304 125.367 201.438 125.613 201.438 125.92V126.06L201.658 125H204.538L203.098 131.8C203.044 132 203.018 132.213 203.018 132.44C203.018 133.013 203.291 133.3 203.838 133.3C204.211 133.3 204.531 133.127 204.798 132.78C205.078 132.433 205.298 131.98 205.458 131.42H206.298C205.804 132.86 205.191 133.84 204.458 134.36C203.738 134.867 203.011 135.12 202.278 135.12C201.718 135.12 201.264 134.967 200.918 134.66C200.584 134.34 200.384 133.88 200.318 133.28C199.931 133.827 199.498 134.273 199.018 134.62C198.551 134.953 197.991 135.12 197.338 135.12ZM198.638 133.18C198.971 133.18 199.298 133.027 199.618 132.72C199.951 132.4 200.178 131.967 200.298 131.42L201.258 126.9C201.258 126.727 201.191 126.56 201.058 126.4C200.924 126.227 200.718 126.14 200.438 126.14C199.904 126.14 199.424 126.453 198.998 127.08C198.571 127.693 198.238 128.44 197.998 129.32C197.758 130.187 197.638 130.953 197.638 131.62C197.638 132.287 197.731 132.713 197.918 132.9C198.118 133.087 198.358 133.18 198.638 133.18ZM207.445 135.12C206.805 135.12 206.285 134.92 205.885 134.52C205.498 134.12 205.305 133.52 205.305 132.72C205.305 132.387 205.358 131.953 205.465 131.42L206.825 125H209.705L208.265 131.8C208.225 132 208.205 132.187 208.205 132.36C208.205 132.907 208.405 133.18 208.805 133.18C209.178 133.18 209.498 133.027 209.765 132.72C210.032 132.4 210.245 131.967 210.405 131.42L211.765 125H214.645L213.205 131.8C213.152 132 213.125 132.213 213.125 132.44C213.125 132.707 213.185 132.9 213.305 133.02C213.438 133.127 213.652 133.18 213.945 133.18C214.318 133.18 214.638 133.02 214.905 132.7C215.185 132.38 215.405 131.953 215.565 131.42H216.405C215.912 132.86 215.298 133.84 214.565 134.36C213.845 134.867 213.118 135.12 212.385 135.12C211.812 135.12 211.352 134.96 211.005 134.64C210.672 134.32 210.472 133.847 210.405 133.22C209.952 133.953 209.472 134.453 208.965 134.72C208.472 134.987 207.965 135.12 207.445 135.12ZM210.545 124.02C209.718 124.02 209.078 123.867 208.625 123.56C208.172 123.253 207.945 122.833 207.945 122.3C207.945 121.86 208.065 121.507 208.305 121.24C208.558 120.973 208.885 120.84 209.285 120.84C209.672 120.84 209.972 120.933 210.185 121.12C210.412 121.307 210.525 121.573 210.525 121.92C210.525 122.347 210.365 122.667 210.045 122.88C210.218 122.933 210.485 122.96 210.845 122.96C211.445 122.96 212.025 122.78 212.585 122.42C213.158 122.047 213.605 121.447 213.925 120.62H214.765C214.338 121.86 213.772 122.74 213.065 123.26C212.358 123.767 211.518 124.02 210.545 124.02ZM222.823 135.12C222.063 135.12 221.476 134.92 221.063 134.52C220.663 134.107 220.463 133.6 220.463 133C220.463 132.613 220.616 131.68 220.923 130.2H218.703L217.683 135H214.802L216.923 125H219.803L218.943 129H221.183L222.083 125H224.763L223.703 129.96C223.569 130.533 223.456 131.033 223.363 131.46C223.269 131.887 223.223 132.18 223.223 132.34C223.223 132.9 223.489 133.18 224.023 133.18C224.396 133.18 224.696 133.053 224.923 132.8C225.149 132.547 225.409 132.087 225.703 131.42H226.543C225.703 133.887 224.463 135.12 222.823 135.12ZM228.559 135.12C227.573 135.12 226.806 134.867 226.259 134.36C225.713 133.84 225.439 133.033 225.439 131.94C225.439 131.02 225.619 130.007 225.979 128.9C226.339 127.793 226.926 126.84 227.739 126.04C228.553 125.227 229.586 124.82 230.839 124.82C232.306 124.82 233.039 125.46 233.039 126.74C233.039 127.487 232.826 128.173 232.399 128.8C231.973 129.427 231.406 129.933 230.699 130.32C229.993 130.693 229.239 130.907 228.439 130.96C228.413 131.36 228.399 131.627 228.399 131.76C228.399 132.413 228.513 132.86 228.739 133.1C228.966 133.327 229.333 133.44 229.839 133.44C230.559 133.44 231.173 133.273 231.679 132.94C232.199 132.607 232.766 132.1 233.379 131.42H234.059C232.579 133.887 230.746 135.12 228.559 135.12ZM228.599 130C229.093 129.973 229.559 129.8 229.999 129.48C230.453 129.16 230.813 128.753 231.079 128.26C231.359 127.767 231.499 127.247 231.499 126.7C231.499 126.153 231.333 125.88 230.999 125.88C230.519 125.88 230.046 126.3 229.579 127.14C229.126 127.98 228.799 128.933 228.599 130ZM234.895 124.26H237.775L237.455 125.76C238.122 125.187 238.902 124.9 239.795 124.9C240.542 124.9 241.135 125.147 241.575 125.64C242.015 126.133 242.235 126.94 242.235 128.06C242.235 129.113 242.082 130.18 241.775 131.26C241.468 132.327 240.948 133.24 240.215 134C239.482 134.747 238.515 135.12 237.315 135.12C236.462 135.12 235.895 134.88 235.615 134.4L234.575 139.28L231.555 140L234.895 124.26ZM236.695 133.38C237.335 133.38 237.862 133.08 238.275 132.48C238.702 131.88 239.008 131.167 239.195 130.34C239.395 129.5 239.495 128.72 239.495 128C239.495 126.893 239.162 126.34 238.495 126.34C238.255 126.34 238.008 126.427 237.755 126.6C237.515 126.773 237.302 127.013 237.115 127.32L235.935 132.92C236.042 133.227 236.295 133.38 236.695 133.38ZM245.59 135.12C244.604 135.12 243.837 134.867 243.29 134.36C242.744 133.84 242.47 133.033 242.47 131.94C242.47 131.02 242.65 130.007 243.01 128.9C243.384 127.793 243.97 126.84 244.77 126.04C245.584 125.227 246.61 124.82 247.85 124.82C248.65 124.82 249.217 124.993 249.55 125.34C249.897 125.687 250.07 126.127 250.07 126.66C250.07 127.127 249.97 127.487 249.77 127.74C249.57 127.993 249.317 128.12 249.01 128.12C248.784 128.12 248.55 128.04 248.31 127.88C248.47 127.44 248.55 127.047 248.55 126.7C248.55 126.447 248.504 126.247 248.41 126.1C248.317 125.953 248.177 125.88 247.99 125.88C247.59 125.88 247.19 126.207 246.79 126.86C246.39 127.513 246.064 128.307 245.81 129.24C245.557 130.173 245.43 131.013 245.43 131.76C245.43 132.413 245.544 132.86 245.77 133.1C245.997 133.327 246.364 133.44 246.87 133.44C247.59 133.44 248.204 133.273 248.71 132.94C249.23 132.607 249.797 132.1 250.41 131.42H251.09C249.61 133.887 247.777 135.12 245.59 135.12ZM257.626 135.12C256.826 135.12 256.22 134.927 255.806 134.54C255.406 134.14 255.206 133.593 255.206 132.9C255.206 132.713 255.253 132.34 255.346 131.78C255.413 131.447 255.446 131.187 255.446 131C255.446 130.36 255.193 130.04 254.686 130.04C254.513 130.04 254.346 130.093 254.186 130.2C254.04 130.293 253.78 130.487 253.406 130.78L252.526 135H249.646L251.786 125H254.666L253.806 128.96C254.713 127.893 255.433 127.08 255.966 126.52C256.5 125.96 256.986 125.54 257.426 125.26C257.88 124.967 258.32 124.82 258.746 124.82C259.573 124.82 259.986 125.26 259.986 126.14C259.986 126.54 259.873 126.86 259.646 127.1C259.433 127.327 259.126 127.44 258.726 127.44C258.353 127.44 258.073 127.34 257.886 127.14C257.7 126.927 257.613 126.687 257.626 126.42C257.373 126.58 257.146 126.76 256.946 126.96C256.746 127.16 256.526 127.42 256.286 127.74C256.006 128.113 255.733 128.433 255.466 128.7C255.733 128.647 256.013 128.62 256.306 128.62C257 128.62 257.486 128.773 257.766 129.08C258.06 129.387 258.206 129.853 258.206 130.48C258.206 130.667 258.166 130.973 258.086 131.4C258.006 131.853 257.966 132.2 257.966 132.44C257.966 132.933 258.233 133.18 258.766 133.18C259.14 133.18 259.433 133.053 259.646 132.8C259.873 132.547 260.133 132.087 260.426 131.42H261.266C260.426 133.887 259.213 135.12 257.626 135.12ZM263.346 135.08C262.359 135.08 261.579 134.827 261.006 134.32C260.432 133.813 260.146 133.013 260.146 131.92C260.146 131.013 260.332 130.007 260.706 128.9C261.079 127.793 261.679 126.84 262.506 126.04C263.332 125.227 264.372 124.82 265.626 124.82C267.332 124.82 268.186 125.887 268.186 128.02V128.04C268.226 128.053 268.299 128.06 268.406 128.06C268.846 128.06 269.352 127.947 269.926 127.72C270.499 127.48 271.019 127.193 271.486 126.86L271.666 127.4C271.279 127.813 270.772 128.167 270.146 128.46C269.532 128.74 268.859 128.94 268.126 129.06C268.019 130.273 267.746 131.333 267.306 132.24C266.866 133.147 266.299 133.847 265.606 134.34C264.912 134.833 264.159 135.08 263.346 135.08ZM264.146 133.28C264.466 133.28 264.786 133.1 265.106 132.74C265.426 132.367 265.706 131.867 265.946 131.24C266.186 130.6 266.359 129.893 266.466 129.12C266.106 129.04 265.926 128.76 265.926 128.28C265.926 127.733 266.132 127.373 266.546 127.2C266.519 126.76 266.452 126.46 266.346 126.3C266.239 126.127 266.052 126.04 265.786 126.04C265.346 126.04 264.919 126.36 264.506 127C264.092 127.64 263.759 128.407 263.506 129.3C263.252 130.193 263.126 130.98 263.126 131.66C263.126 132.3 263.199 132.733 263.346 132.96C263.492 133.173 263.759 133.28 264.146 133.28ZM274.415 124.02C273.588 124.02 272.948 123.867 272.495 123.56C272.042 123.253 271.815 122.833 271.815 122.3C271.815 121.86 271.935 121.507 272.175 121.24C272.428 120.973 272.755 120.84 273.155 120.84C273.542 120.84 273.842 120.933 274.055 121.12C274.282 121.307 274.395 121.573 274.395 121.92C274.395 122.347 274.235 122.667 273.915 122.88C274.088 122.933 274.355 122.96 274.715 122.96C275.355 122.96 275.948 122.78 276.495 122.42C277.042 122.06 277.475 121.46 277.795 120.62H278.635C278.208 121.873 277.648 122.753 276.955 123.26C276.275 123.767 275.428 124.02 274.415 124.02ZM271.195 135.12C270.555 135.12 270.035 134.92 269.635 134.52C269.248 134.12 269.055 133.52 269.055 132.72C269.055 132.387 269.108 131.953 269.215 131.42L270.575 125H273.455L272.015 131.8C271.975 131.96 271.955 132.127 271.955 132.3C271.955 132.887 272.155 133.18 272.555 133.18C272.928 133.18 273.248 133.027 273.515 132.72C273.782 132.4 273.995 131.967 274.155 131.42L275.515 125H278.395L276.955 131.8C276.902 132 276.875 132.213 276.875 132.44C276.875 132.707 276.935 132.9 277.055 133.02C277.188 133.127 277.402 133.18 277.695 133.18C277.908 133.18 278.062 133.167 278.155 133.14C278.262 133.1 278.328 133.073 278.355 133.06C278.302 133.74 278.068 134.253 277.655 134.6C277.242 134.947 276.735 135.12 276.135 135.12C275.575 135.12 275.122 134.953 274.775 134.62C274.442 134.287 274.242 133.82 274.175 133.22C273.722 133.953 273.242 134.453 272.735 134.72C272.242 134.987 271.728 135.12 271.195 135.12ZM175.97 156.42C175.13 158.887 173.89 160.12 172.25 160.12C171.49 160.12 170.903 159.92 170.49 159.52C170.09 159.107 169.89 158.6 169.89 158C169.89 157.48 170.03 156.593 170.31 155.34L170.89 152.74L167.27 160H164.91L164.37 151.62C164.13 151.9 163.917 152.307 163.73 152.84C163.543 153.36 163.363 154.067 163.19 154.96C162.937 156.267 162.703 157.267 162.49 157.96C162.29 158.653 162.003 159.187 161.63 159.56C161.27 159.933 160.783 160.12 160.17 160.12C159.45 160.12 158.883 159.9 158.47 159.46C158.043 159.007 157.83 158.46 157.83 157.82C157.83 157.367 157.937 157.007 158.15 156.74C158.363 156.46 158.657 156.32 159.03 156.32C159.35 156.32 159.61 156.42 159.81 156.62C160.01 156.82 160.11 157.06 160.11 157.34C160.11 157.66 160.03 157.907 159.87 158.08C159.71 158.24 159.523 158.307 159.31 158.28C159.31 158.787 159.57 159.04 160.09 159.04C160.463 159.04 160.77 158.907 161.01 158.64C161.25 158.36 161.457 157.907 161.63 157.28C161.817 156.653 162.017 155.747 162.23 154.56C162.523 152.867 162.963 151.687 163.55 151.02C164.15 150.34 164.93 150 165.89 150H166.79L167.17 157.68L170.95 150H174.19L173.13 154.96C172.997 155.533 172.883 156.033 172.79 156.46C172.697 156.887 172.65 157.18 172.65 157.34C172.65 157.9 172.917 158.18 173.45 158.18C173.823 158.18 174.123 158.053 174.35 157.8C174.577 157.547 174.837 157.087 175.13 156.42H175.97ZM177.993 160.12C177.006 160.12 176.239 159.867 175.693 159.36C175.146 158.84 174.873 158.033 174.873 156.94C174.873 156.02 175.053 155.007 175.413 153.9C175.773 152.793 176.359 151.84 177.173 151.04C177.986 150.227 179.019 149.82 180.273 149.82C181.739 149.82 182.473 150.46 182.473 151.74C182.473 152.487 182.259 153.173 181.833 153.8C181.406 154.427 180.839 154.933 180.133 155.32C179.426 155.693 178.673 155.907 177.873 155.96C177.846 156.36 177.833 156.627 177.833 156.76C177.833 157.413 177.946 157.86 178.173 158.1C178.399 158.327 178.766 158.44 179.273 158.44C179.993 158.44 180.606 158.273 181.113 157.94C181.633 157.607 182.199 157.1 182.813 156.42H183.493C182.013 158.887 180.179 160.12 177.993 160.12ZM178.033 155C178.526 154.973 178.993 154.8 179.433 154.48C179.886 154.16 180.246 153.753 180.513 153.26C180.793 152.767 180.933 152.247 180.933 151.7C180.933 151.153 180.766 150.88 180.433 150.88C179.953 150.88 179.479 151.3 179.013 152.14C178.559 152.98 178.233 153.933 178.033 155ZM185.749 160.08C184.722 160.08 183.929 159.807 183.369 159.26C182.822 158.7 182.549 157.847 182.549 156.7C182.549 155.66 182.762 154.667 183.189 153.72C183.629 152.773 184.262 152.007 185.089 151.42C185.915 150.833 186.889 150.54 188.009 150.54L188.349 150.56C188.135 150.307 187.809 149.96 187.369 149.52C186.875 149.04 186.509 148.633 186.269 148.3C186.029 147.953 185.909 147.573 185.909 147.16C185.909 146.653 186.082 146.28 186.429 146.04C186.775 145.8 187.322 145.68 188.069 145.68H191.109H191.729C192.075 145.68 192.329 145.66 192.489 145.62C192.649 145.58 192.775 145.5 192.869 145.38C192.962 145.247 193.049 145.027 193.129 144.72H194.009C193.795 145.76 193.562 146.533 193.309 147.04C193.055 147.547 192.722 147.893 192.309 148.08C191.909 148.267 191.349 148.36 190.629 148.36H188.709C188.629 148.36 188.562 148.38 188.509 148.42C188.469 148.447 188.449 148.507 188.449 148.6C188.449 148.653 188.562 148.827 188.789 149.12C189.282 149.72 189.702 150.367 190.049 151.06C190.395 151.753 190.569 152.567 190.569 153.5C190.569 154.513 190.369 155.533 189.969 156.56C189.582 157.573 189.022 158.413 188.289 159.08C187.555 159.747 186.709 160.08 185.749 160.08ZM186.509 158.28C187.055 158.28 187.509 157.947 187.869 157.28C188.229 156.613 188.489 155.86 188.649 155.02C188.822 154.18 188.909 153.533 188.909 153.08C188.909 152.573 188.849 152.227 188.729 152.04C188.609 151.853 188.415 151.76 188.149 151.76C187.562 151.76 187.069 152.08 186.669 152.72C186.269 153.36 185.969 154.087 185.769 154.9C185.569 155.713 185.469 156.347 185.469 156.8C185.469 157.373 185.542 157.767 185.689 157.98C185.849 158.18 186.122 158.28 186.509 158.28ZM194.262 160.12C193.276 160.12 192.509 159.867 191.962 159.36C191.416 158.84 191.142 158.033 191.142 156.94C191.142 156.02 191.322 155.007 191.682 153.9C192.042 152.793 192.629 151.84 193.442 151.04C194.256 150.227 195.289 149.82 196.542 149.82C198.009 149.82 198.742 150.46 198.742 151.74C198.742 152.487 198.529 153.173 198.102 153.8C197.676 154.427 197.109 154.933 196.402 155.32C195.696 155.693 194.942 155.907 194.142 155.96C194.116 156.36 194.102 156.627 194.102 156.76C194.102 157.413 194.216 157.86 194.442 158.1C194.669 158.327 195.036 158.44 195.542 158.44C196.262 158.44 196.876 158.273 197.382 157.94C197.902 157.607 198.469 157.1 199.082 156.42H199.762C198.282 158.887 196.449 160.12 194.262 160.12ZM194.302 155C194.796 154.973 195.262 154.8 195.702 154.48C196.156 154.16 196.516 153.753 196.782 153.26C197.062 152.767 197.202 152.247 197.202 151.7C197.202 151.153 197.036 150.88 196.702 150.88C196.222 150.88 195.749 151.3 195.282 152.14C194.829 152.98 194.502 153.933 194.302 155ZM200.658 160.12C199.938 160.12 199.371 159.9 198.958 159.46C198.531 159.007 198.318 158.46 198.318 157.82C198.318 157.367 198.425 157.007 198.638 156.74C198.851 156.46 199.145 156.32 199.518 156.32C199.838 156.32 200.098 156.42 200.298 156.62C200.498 156.82 200.598 157.06 200.598 157.34C200.598 157.66 200.518 157.907 200.358 158.08C200.198 158.24 200.011 158.307 199.798 158.28C199.798 158.787 200.058 159.04 200.578 159.04C200.938 159.04 201.238 158.9 201.478 158.62C201.718 158.327 201.925 157.893 202.098 157.32C202.271 156.747 202.451 155.96 202.638 154.96C202.891 153.613 203.185 152.58 203.518 151.86C203.865 151.14 204.258 150.653 204.698 150.4C205.151 150.133 205.705 150 206.358 150H209.298L208.238 154.96C208.105 155.533 207.991 156.033 207.898 156.46C207.805 156.887 207.758 157.18 207.758 157.34C207.758 157.9 208.025 158.18 208.558 158.18C208.931 158.18 209.231 158.053 209.458 157.8C209.685 157.547 209.945 157.087 210.238 156.42H211.078C210.238 158.887 208.978 160.12 207.298 160.12C206.565 160.12 205.998 159.913 205.598 159.5C205.198 159.087 204.998 158.587 204.998 158C204.998 157.533 205.145 156.627 205.438 155.28L206.378 151.02C205.871 151.02 205.458 151.127 205.138 151.34C204.831 151.553 204.571 151.913 204.358 152.42C204.145 152.927 203.945 153.64 203.758 154.56C203.465 156.067 203.211 157.18 202.998 157.9C202.798 158.607 202.518 159.153 202.158 159.54C201.798 159.927 201.298 160.12 200.658 160.12ZM212.21 160.12C211.57 160.12 211.05 159.92 210.65 159.52C210.264 159.12 210.07 158.52 210.07 157.72C210.07 157.387 210.124 156.953 210.23 156.42L211.59 150H214.47L213.03 156.8C212.99 156.96 212.97 157.127 212.97 157.3C212.97 157.887 213.17 158.18 213.57 158.18C213.944 158.18 214.264 158.027 214.53 157.72C214.797 157.4 215.01 156.967 215.17 156.42L216.53 150H219.41L217.97 156.8C217.917 157 217.89 157.213 217.89 157.44C217.89 157.707 217.95 157.9 218.07 158.02C218.204 158.127 218.417 158.18 218.71 158.18C218.924 158.18 219.077 158.167 219.17 158.14C219.277 158.1 219.344 158.073 219.37 158.06C219.317 158.74 219.084 159.253 218.67 159.6C218.257 159.947 217.75 160.12 217.15 160.12C216.59 160.12 216.137 159.953 215.79 159.62C215.457 159.287 215.257 158.82 215.19 158.22C214.737 158.953 214.257 159.453 213.75 159.72C213.257 159.987 212.744 160.12 212.21 160.12Z" fill="#4946DD"/>
</svg>
