<svg width="262" height="262" viewBox="0 0 262 262" fill="none" xmlns="http://www.w3.org/2000/svg">
<ellipse rx="3.64733" ry="3.66837" transform="matrix(0.711455 0.702732 0.702732 -0.711455 173.475 5.17294)" fill="black" fill-opacity="0.3"/>
<ellipse rx="3.64733" ry="3.66837" transform="matrix(0.711455 0.702732 0.702732 -0.711455 84.1083 95.6489)" fill="black" fill-opacity="0.3"/>
<ellipse rx="3.64733" ry="3.66837" transform="matrix(0.711455 0.702732 0.702732 -0.711455 95.932 107.328)" fill="black" fill-opacity="0.3"/>
<ellipse rx="3.64733" ry="3.66837" transform="matrix(0.711455 0.702732 0.702732 -0.711455 107.756 119.006)" fill="black" fill-opacity="0.3"/>
<ellipse rx="3.64733" ry="3.66837" transform="matrix(0.711455 0.702732 0.702732 -0.711455 119.58 130.685)" fill="black" fill-opacity="0.3"/>
<ellipse rx="3.64733" ry="3.66837" transform="matrix(0.711455 0.702732 0.702732 -0.711455 131.403 142.364)" fill="black" fill-opacity="0.3"/>
<ellipse rx="3.64733" ry="3.66837" transform="matrix(0.711455 0.702732 0.702732 -0.711455 143.561 154.046)" fill="black" fill-opacity="0.3"/>
<ellipse rx="3.64733" ry="3.66837" transform="matrix(0.711455 0.702732 0.702732 -0.711455 155.121 165.564)" fill="black" fill-opacity="0.3"/>
<ellipse rx="3.64733" ry="3.66837" transform="matrix(0.711455 0.702732 0.702732 -0.711455 166.68 177.081)" fill="black" fill-opacity="0.3"/>
<ellipse rx="3.64733" ry="3.66837" transform="matrix(0.711455 0.702732 0.702732 -0.711455 128.792 50.4109)" fill="black" fill-opacity="0.3"/>
<ellipse rx="3.64733" ry="3.66837" transform="matrix(0.711455 0.702732 0.702732 -0.711455 140.615 62.0897)" fill="black" fill-opacity="0.3"/>
<ellipse rx="3.64733" ry="3.66837" transform="matrix(0.711455 0.702732 0.702732 -0.711455 152.439 73.7685)" fill="black" fill-opacity="0.3"/>
<ellipse rx="3.64733" ry="3.66837" transform="matrix(0.711455 0.702732 0.702732 -0.711455 164.263 85.4474)" fill="black" fill-opacity="0.3"/>
<ellipse rx="3.64733" ry="3.66837" transform="matrix(0.711455 0.702732 0.702732 -0.711455 176.087 97.1261)" fill="black" fill-opacity="0.3"/>
<ellipse rx="3.64733" ry="3.66837" transform="matrix(0.711455 0.702732 0.702732 -0.711455 39.425 140.887)" fill="black" fill-opacity="0.3"/>
<ellipse rx="3.64733" ry="3.66837" transform="matrix(0.711455 0.702732 0.702732 -0.711455 51.2488 152.566)" fill="black" fill-opacity="0.3"/>
<ellipse rx="3.64733" ry="3.66837" transform="matrix(0.711455 0.702732 0.702732 -0.711455 63.0725 164.244)" fill="black" fill-opacity="0.3"/>
<ellipse rx="3.64733" ry="3.66837" transform="matrix(0.711455 0.702732 0.702732 -0.711455 74.8963 175.923)" fill="black" fill-opacity="0.3"/>
<ellipse rx="3.64733" ry="3.66837" transform="matrix(0.711455 0.702732 0.702732 -0.711455 151.133 27.792)" fill="black" fill-opacity="0.3"/>
<ellipse rx="3.64733" ry="3.66837" transform="matrix(0.711455 0.702732 0.702732 -0.711455 162.957 39.4707)" fill="black" fill-opacity="0.3"/>
<ellipse rx="3.64733" ry="3.66837" transform="matrix(0.711455 0.702732 0.702732 -0.711455 174.781 51.1495)" fill="black" fill-opacity="0.3"/>
<ellipse rx="3.64733" ry="3.66837" transform="matrix(0.711455 0.702732 0.702732 -0.711455 61.7667 118.268)" fill="black" fill-opacity="0.3"/>
<ellipse rx="3.64733" ry="3.66837" transform="matrix(0.711455 0.702732 0.702732 -0.711455 73.5904 129.947)" fill="black" fill-opacity="0.3"/>
<ellipse rx="3.64733" ry="3.66837" transform="matrix(0.711455 0.702732 0.702732 -0.711455 85.4142 141.625)" fill="black" fill-opacity="0.3"/>
<ellipse rx="3.64733" ry="3.66837" transform="matrix(0.711455 0.702732 0.702732 -0.711455 97.238 153.304)" fill="black" fill-opacity="0.3"/>
<ellipse rx="3.64733" ry="3.66837" transform="matrix(0.711455 0.702732 0.702732 -0.711455 109.062 164.983)" fill="black" fill-opacity="0.3"/>
<ellipse rx="3.64733" ry="3.66837" transform="matrix(0.711455 0.702732 0.702732 -0.711455 121.22 176.665)" fill="black" fill-opacity="0.3"/>
<ellipse rx="3.64733" ry="3.66837" transform="matrix(0.711455 0.702732 0.702732 -0.711455 106.45 73.0299)" fill="black" fill-opacity="0.3"/>
<ellipse rx="3.64733" ry="3.66837" transform="matrix(0.711455 0.702732 0.702732 -0.711455 118.274 84.7087)" fill="black" fill-opacity="0.3"/>
<ellipse rx="3.64733" ry="3.66837" transform="matrix(0.711455 0.702732 0.702732 -0.711455 130.097 96.3875)" fill="black" fill-opacity="0.3"/>
<ellipse rx="3.64733" ry="3.66837" transform="matrix(0.711455 0.702732 0.702732 -0.711455 141.921 108.066)" fill="black" fill-opacity="0.3"/>
<ellipse rx="3.64733" ry="3.66837" transform="matrix(0.711455 0.702732 0.702732 -0.711455 153.745 119.745)" fill="black" fill-opacity="0.3"/>
<ellipse rx="3.64733" ry="3.66837" transform="matrix(0.711455 0.702732 0.702732 -0.711455 165.903 131.427)" fill="black" fill-opacity="0.3"/>
<ellipse rx="3.64733" ry="3.66837" transform="matrix(0.711455 0.702732 0.702732 -0.711455 177.462 142.945)" fill="black" fill-opacity="0.3"/>
<ellipse rx="3.64733" ry="3.66837" transform="matrix(0.711455 0.702732 0.702732 -0.711455 17.0833 163.506)" fill="black" fill-opacity="0.3"/>
<ellipse rx="3.64733" ry="3.66837" transform="matrix(0.711455 0.702732 0.702732 -0.711455 28.907 175.185)" fill="black" fill-opacity="0.3"/>
<ellipse rx="3.64733" ry="3.66837" transform="matrix(0.711455 0.702732 0.702732 -0.711455 162.304 16.4824)" fill="black" fill-opacity="0.3"/>
<ellipse rx="3.64733" ry="3.66837" transform="matrix(0.711455 0.702732 0.702732 -0.711455 174.128 28.1612)" fill="black" fill-opacity="0.3"/>
<ellipse rx="3.64733" ry="3.66837" transform="matrix(0.711455 0.702732 0.702732 -0.711455 72.9375 106.958)" fill="black" fill-opacity="0.3"/>
<ellipse rx="3.64733" ry="3.66837" transform="matrix(0.711455 0.702732 0.702732 -0.711455 84.7612 118.637)" fill="black" fill-opacity="0.3"/>
<ellipse rx="3.64733" ry="3.66837" transform="matrix(0.711455 0.702732 0.702732 -0.711455 96.585 130.316)" fill="black" fill-opacity="0.3"/>
<ellipse rx="3.64733" ry="3.66837" transform="matrix(0.711455 0.702732 0.702732 -0.711455 108.409 141.995)" fill="black" fill-opacity="0.3"/>
<ellipse rx="3.64733" ry="3.66837" transform="matrix(0.711455 0.702732 0.702732 -0.711455 120.233 153.674)" fill="black" fill-opacity="0.3"/>
<ellipse rx="3.64733" ry="3.66837" transform="matrix(0.711455 0.702732 0.702732 -0.711455 132.391 165.356)" fill="black" fill-opacity="0.3"/>
<ellipse rx="3.64733" ry="3.66837" transform="matrix(0.711455 0.702732 0.702732 -0.711455 143.95 176.873)" fill="black" fill-opacity="0.3"/>
<ellipse rx="3.64733" ry="3.66837" transform="matrix(0.711455 0.702732 0.702732 -0.711455 117.621 61.7204)" fill="black" fill-opacity="0.3"/>
<ellipse rx="3.64733" ry="3.66837" transform="matrix(0.711455 0.702732 0.702732 -0.711455 129.445 73.3993)" fill="black" fill-opacity="0.3"/>
<ellipse rx="3.64733" ry="3.66837" transform="matrix(0.711455 0.702732 0.702732 -0.711455 141.268 85.078)" fill="black" fill-opacity="0.3"/>
<ellipse rx="3.64733" ry="3.66837" transform="matrix(0.711455 0.702732 0.702732 -0.711455 153.092 96.7568)" fill="black" fill-opacity="0.3"/>
<ellipse rx="3.64733" ry="3.66837" transform="matrix(0.711455 0.702732 0.702732 -0.711455 164.916 108.436)" fill="black" fill-opacity="0.3"/>
<ellipse rx="3.64733" ry="3.66837" transform="matrix(0.711455 0.702732 0.702732 -0.711455 177.074 120.118)" fill="black" fill-opacity="0.3"/>
<ellipse rx="3.64733" ry="3.66837" transform="matrix(0.711455 0.702732 0.702732 -0.711455 28.2541 152.196)" fill="black" fill-opacity="0.3"/>
<ellipse rx="3.64733" ry="3.66837" transform="matrix(0.711455 0.702732 0.702732 -0.711455 40.078 163.875)" fill="black" fill-opacity="0.3"/>
<ellipse rx="3.64733" ry="3.66837" transform="matrix(0.711455 0.702732 0.702732 -0.711455 51.9017 175.554)" fill="black" fill-opacity="0.3"/>
<ellipse rx="3.64733" ry="3.66837" transform="matrix(0.711455 0.702732 0.702732 -0.711455 139.962 39.1014)" fill="black" fill-opacity="0.3"/>
<ellipse rx="3.64733" ry="3.66837" transform="matrix(0.711455 0.702732 0.702732 -0.711455 151.786 50.7802)" fill="black" fill-opacity="0.3"/>
<ellipse rx="3.64733" ry="3.66837" transform="matrix(0.711455 0.702732 0.702732 -0.711455 163.61 62.4589)" fill="black" fill-opacity="0.3"/>
<ellipse rx="3.64733" ry="3.66837" transform="matrix(0.711455 0.702732 0.702732 -0.711455 175.434 74.1378)" fill="black" fill-opacity="0.3"/>
<ellipse rx="3.64733" ry="3.66837" transform="matrix(0.711455 0.702732 0.702732 -0.711455 50.5958 129.577)" fill="black" fill-opacity="0.3"/>
<ellipse rx="3.64733" ry="3.66837" transform="matrix(0.711455 0.702732 0.702732 -0.711455 62.4196 141.256)" fill="black" fill-opacity="0.3"/>
<ellipse rx="3.64733" ry="3.66837" transform="matrix(0.711455 0.702732 0.702732 -0.711455 74.2434 152.935)" fill="black" fill-opacity="0.3"/>
<ellipse rx="3.64733" ry="3.66837" transform="matrix(0.711455 0.702732 0.702732 -0.711455 86.0671 164.614)" fill="black" fill-opacity="0.3"/>
<ellipse rx="3.64733" ry="3.66837" transform="matrix(0.711455 0.702732 0.702732 -0.711455 97.8909 176.293)" fill="black" fill-opacity="0.3"/>
<ellipse rx="3.64733" ry="3.66837" transform="matrix(0.711455 0.702732 0.702732 -0.711455 95.2791 84.3393)" fill="black" fill-opacity="0.3"/>
<ellipse rx="3.64733" ry="3.66837" transform="matrix(0.711455 0.702732 0.702732 -0.711455 107.103 96.0182)" fill="black" fill-opacity="0.3"/>
<ellipse rx="3.64733" ry="3.66837" transform="matrix(0.711455 0.702732 0.702732 -0.711455 118.927 107.697)" fill="black" fill-opacity="0.3"/>
<ellipse rx="3.64733" ry="3.66837" transform="matrix(0.711455 0.702732 0.702732 -0.711455 130.751 119.376)" fill="black" fill-opacity="0.3"/>
<ellipse rx="3.64733" ry="3.66837" transform="matrix(0.711455 0.702732 0.702732 -0.711455 142.574 131.055)" fill="black" fill-opacity="0.3"/>
<ellipse rx="3.64733" ry="3.66837" transform="matrix(0.711455 0.702732 0.702732 -0.711455 154.732 142.737)" fill="black" fill-opacity="0.3"/>
<ellipse rx="3.64733" ry="3.66837" transform="matrix(0.711455 0.702732 0.702732 -0.711455 166.292 154.254)" fill="black" fill-opacity="0.3"/>
<ellipse rx="3.64733" ry="3.66837" transform="matrix(0.711455 0.702732 0.702732 -0.711455 177.851 165.771)" fill="black" fill-opacity="0.3"/>
<ellipse rx="3.64733" ry="3.66837" transform="matrix(0.711455 0.702732 0.702732 -0.711455 5.9129 174.816)" fill="black" fill-opacity="0.3"/>
</svg>
