<svg width="34" height="34" viewBox="0 0 34 34" fill="none" xmlns="http://www.w3.org/2000/svg">
<path d="M17 0C7.61148 0 0 7.61113 0 17C0 26.3889 7.61148 34 17 34C26.3885 34 34 26.3889 34 17C34 7.61113 26.3885 0 17 0ZM25.6233 18.8386C26.4157 19.6125 27.2539 20.3409 27.9652 21.1948C28.2803 21.5725 28.5774 21.9631 28.8035 22.4024C29.1263 23.0289 28.8348 23.7158 28.2741 23.753L24.7913 23.7523C23.8918 23.8268 23.176 23.464 22.5725 22.849C22.0908 22.359 21.6438 21.8355 21.1798 21.3287C20.9903 21.1207 20.7906 20.9249 20.5527 20.7708C20.0779 20.4619 19.6654 20.5565 19.3934 21.0525C19.1162 21.5572 19.0529 22.1165 19.0264 22.6783C18.9885 23.4995 18.7409 23.7141 17.9169 23.7527C16.1562 23.8351 14.4856 23.568 12.9329 22.6803C11.5631 21.8974 10.503 20.7923 9.57913 19.5412C7.78017 17.1023 6.40243 14.4254 5.16452 11.6717C4.88591 11.0515 5.08974 10.7197 5.77391 10.7068C6.91061 10.6849 8.0473 10.6877 9.184 10.7057C9.64661 10.713 9.9527 10.9777 10.1304 11.4143C10.7447 12.9256 11.4977 14.3635 12.4414 15.697C12.6929 16.0522 12.9496 16.4063 13.3151 16.657C13.7186 16.9339 14.0261 16.8424 14.2163 16.392C14.3381 16.1057 14.3906 15.7997 14.417 15.4929C14.5075 14.4421 14.5183 13.3917 14.3617 12.345C14.2643 11.6901 13.896 11.2671 13.2431 11.1433C12.9106 11.0803 12.9593 10.9572 13.121 10.7673C13.4017 10.439 13.6647 10.2358 14.1903 10.2358L18.1252 10.2351C18.7454 10.3569 18.8845 10.6351 18.9687 11.2598L18.9722 15.6327C18.9649 15.8744 19.0936 16.591 19.5277 16.7492C19.8755 16.864 20.105 16.585 20.313 16.3649C21.2567 15.3635 21.929 14.1816 22.5311 12.9583C22.7969 12.4188 23.0261 11.8605 23.2487 11.3012C23.4143 10.8877 23.6717 10.6842 24.1384 10.6911L27.9277 10.6957C28.0393 10.6957 28.1527 10.6967 28.2633 10.7158C28.9019 10.825 29.0769 11.0998 28.8793 11.7228C28.5683 12.7016 27.9642 13.5169 27.3736 14.3343C26.7405 15.2094 26.0654 16.0539 25.4386 16.9329C24.8626 17.7363 24.9082 18.1409 25.6233 18.8386Z" fill="#FECD4B"/>
</svg>
