<svg width="32" height="32" viewBox="0 0 32 32" fill="none" xmlns="http://www.w3.org/2000/svg">
<g clip-path="url(#clip0)">
<path d="M25.1686 21.7956L21.589 19.5583C21.3711 19.4222 21.0882 19.4545 20.9065 19.6361L19.6375 20.9051C19.2622 21.2821 18.7282 21.4551 18.2031 21.3696C16.3329 21.0069 14.6225 20.0699 13.3098 18.6894C11.9292 17.3767 10.9923 15.6663 10.6296 13.7961C10.5437 13.271 10.7167 12.7367 11.0941 12.3616L12.3631 11.0927C12.5447 10.911 12.577 10.628 12.4409 10.4102L10.2069 6.83115C10.1064 6.66996 9.93012 6.57179 9.74017 6.57129C9.65414 6.57152 9.56934 6.59173 9.49245 6.63032L5.89521 8.42894C5.68823 8.53077 5.56731 8.75142 5.59286 8.98067C5.94541 11.8921 7.25741 16.2541 11.5035 20.5001C15.7495 24.7462 20.1104 26.0582 23.0229 26.4107C23.2519 26.435 23.4719 26.3144 23.5747 26.1084L25.3733 22.5112C25.5004 22.2556 25.4117 21.9452 25.1686 21.7956Z" fill="#FECD4B"/>
<path d="M14.7031 0.0507605C9.12209 0.50398 4.18404 3.8418 1.68297 8.85162C-0.818096 13.8614 -0.518231 19.8142 2.47363 24.5473C2.66871 24.8484 2.70691 25.225 2.57625 25.5592L0.430595 30.9219C0.351741 31.1196 0.393633 31.345 0.538247 31.5012C0.68286 31.6574 0.904403 31.7164 1.10756 31.653L7.14066 29.7677C7.43804 29.6771 7.75978 29.7151 8.02784 29.8726C13.9942 33.2996 21.4835 32.5283 26.6263 27.9574C31.7691 23.3864 33.4136 16.0393 30.7103 9.71207C28.007 3.38481 21.5612 -0.505623 14.7031 0.0507605ZM15.9997 1.65462C16.3044 1.65462 16.5514 1.90164 16.5514 2.20635C16.5514 2.51106 16.3044 2.75807 15.9997 2.75807C15.695 2.75807 15.448 2.51106 15.448 2.20635C15.448 1.90164 15.695 1.65462 15.9997 1.65462ZM26.3561 23.003L24.5575 26.6008C24.2481 27.2254 23.579 27.5876 22.8869 27.5051C19.8033 27.131 15.1887 25.7479 10.7203 21.2789C6.25184 16.8099 4.86811 12.1959 4.49404 9.11228C4.4141 8.42064 4.77552 7.75291 5.39832 7.44166L8.99611 5.64304C9.759 5.25781 10.6898 5.51991 11.1396 6.24662L13.3768 9.82621C13.7883 10.4791 13.6913 11.3302 13.1434 11.8737L11.8745 13.1426C11.7499 13.2651 11.6918 13.44 11.7183 13.6127C12.0423 15.2569 12.8717 16.759 14.0907 17.909C15.2406 19.1279 16.7424 19.9573 18.3865 20.2814C18.5593 20.3083 18.7346 20.2502 18.8571 20.1252L20.126 18.8563C20.6693 18.3083 21.5203 18.2112 22.1729 18.6229L25.7525 20.8601C26.4785 21.3102 26.7404 22.2402 26.3561 23.003ZM26.5034 7.04276C26.2796 7.24948 25.9306 7.23565 25.7238 7.01186C23.7054 4.8375 21.0192 3.39877 18.0907 2.92359C17.8961 2.89225 17.7329 2.75944 17.6628 2.5752C17.5926 2.39096 17.626 2.18327 17.7505 2.03038C17.875 1.87748 18.0715 1.80259 18.2662 1.83393C21.4379 2.34826 24.3473 3.90598 26.5338 6.26042C26.634 6.36795 26.6871 6.51103 26.6814 6.6579C26.6757 6.80478 26.6117 6.94331 26.5034 7.04276Z" fill="#FECD4B"/>
</g>
<defs>
<clipPath id="clip0">
<rect width="32" height="32" fill="white"/>
</clipPath>
</defs>
</svg>
