<svg width="32" height="32" viewBox="0 0 32 32" fill="none" xmlns="http://www.w3.org/2000/svg">
<g clip-path="url(#clip0)">
<path d="M25.1686 21.7959L21.589 19.5587C21.3711 19.4226 21.0881 19.4548 20.9065 19.6365L19.6375 20.9055C19.2622 21.2825 18.7281 21.4554 18.203 21.37C16.3329 21.0072 14.6224 20.0703 13.3098 18.6897C11.9292 17.3771 10.9923 15.6666 10.6295 13.7965C10.5436 13.2714 10.7166 12.7371 11.0941 12.362L12.363 11.0931C12.5447 10.9114 12.5769 10.6284 12.4408 10.4106L10.2069 6.83153C10.1064 6.67034 9.93009 6.57217 9.74014 6.57167C9.65411 6.5719 9.56931 6.59211 9.49242 6.6307L5.89518 8.42933C5.6882 8.53115 5.56728 8.7518 5.59283 8.98105C5.94538 11.8925 7.25738 16.2544 11.5035 20.5005C15.7495 24.7466 20.1103 26.0586 23.0229 26.4111C23.2519 26.4353 23.4718 26.3148 23.5746 26.1088L25.3732 22.5115C25.5004 22.256 25.4116 21.9456 25.1686 21.7959Z" fill="#22D63F"/>
<path d="M14.7031 0.0510657C9.12205 0.504285 4.184 3.84211 1.68293 8.85192C-0.818142 13.8617 -0.518277 19.8145 2.47358 24.5476C2.66867 24.8487 2.70686 25.2253 2.5762 25.5595L0.430549 30.9222C0.351696 31.1199 0.393587 31.3454 0.538201 31.5015C0.682814 31.6577 0.904357 31.7167 1.10751 31.6533L7.14062 29.768C7.43799 29.6774 7.75973 29.7154 8.02779 29.8729C13.9942 33.2999 21.4834 32.5286 26.6262 27.9577C31.769 23.3867 33.4136 16.0396 30.7103 9.71237C28.0069 3.38512 21.5611 -0.505318 14.7031 0.0510657ZM15.9997 1.65493C16.3044 1.65493 16.5514 1.90194 16.5514 2.20665C16.5514 2.51136 16.3044 2.75838 15.9997 2.75838C15.6949 2.75838 15.4479 2.51136 15.4479 2.20665C15.4479 1.90194 15.6949 1.65493 15.9997 1.65493ZM26.3561 23.0033L24.5574 26.6011C24.248 27.2257 23.579 27.5879 22.8868 27.5054C19.8032 27.1313 15.1886 25.7482 10.7202 21.2792C6.25179 16.8102 4.86807 12.1962 4.494 9.11258C4.41405 8.42094 4.77548 7.75322 5.39827 7.44196L8.99607 5.64334C9.75895 5.25811 10.6897 5.52022 11.1395 6.24693L13.3768 9.82651C13.7883 10.4794 13.6913 11.3305 13.1434 11.874L11.8744 13.1429C11.7498 13.2654 11.6917 13.4403 11.7183 13.613C12.0422 15.2573 12.8717 16.7593 14.0907 17.9093C15.2406 19.1282 16.7424 19.9576 18.3864 20.2817C18.5593 20.3086 18.7345 20.2505 18.857 20.1255L20.126 18.8566C20.6692 18.3086 21.5203 18.2115 22.1729 18.6232L25.7525 20.8604C26.4784 21.3105 26.7404 22.2405 26.3561 23.0033ZM26.5034 7.04307C26.2796 7.24979 25.9305 7.23596 25.7238 7.01217C23.7054 4.8378 21.0192 3.39907 18.0907 2.92389C17.896 2.89255 17.7329 2.75975 17.6627 2.57551C17.5925 2.39127 17.626 2.18358 17.7504 2.03068C17.8749 1.87778 18.0715 1.8029 18.2661 1.83424C21.4378 2.34856 24.3473 3.90629 26.5337 6.26072C26.6339 6.36826 26.6871 6.51134 26.6814 6.65821C26.6757 6.80508 26.6116 6.94361 26.5034 7.04307Z" fill="#22D63F"/>
</g>
<defs>
<clipPath id="clip0">
<rect width="32" height="32" fill="white"/>
</clipPath>
</defs>
</svg>
