<svg width="29" height="29" viewBox="0 0 29 29" fill="none" xmlns="http://www.w3.org/2000/svg">
<path d="M22.809 19.7525L19.565 17.725C19.3676 17.6017 19.1111 17.6309 18.9465 17.7955L17.7965 18.9455C17.4564 19.2872 16.9724 19.4439 16.4965 19.3665C14.8017 19.0377 13.2516 18.1887 12.062 16.9375C10.8109 15.7479 9.96178 14.1978 9.63301 12.503C9.55517 12.0271 9.71197 11.5429 10.054 11.203L11.204 10.053C11.3686 9.88839 11.3979 9.63194 11.2745 9.43451L9.25001 6.19101C9.15895 6.04492 8.99915 5.95596 8.82701 5.95551C8.74905 5.95572 8.67219 5.97403 8.60251 6.00901L5.34251 7.63901C5.15494 7.73128 5.04536 7.93125 5.06851 8.13901C5.38801 10.7775 6.57701 14.7305 10.425 18.5785C14.273 22.4265 18.225 23.6155 20.8645 23.935C21.072 23.957 21.2713 23.8477 21.3645 23.661L22.9945 20.401C23.1097 20.1694 23.0293 19.8881 22.809 19.7525Z" fill="#47484B"/>
</svg>
